<mxfile host="Electron" agent="Mozilla/5.0 (Windows NT 10.0; Win64; x64) AppleWebKit/537.36 (KHTML, like Gecko) draw.io/26.2.2 Chrome/134.0.6998.178 Electron/35.1.2 Safari/537.36" version="26.2.2">
  <diagram id="prtHgNgQTEPvFCAcTncT" name="Page-1">
    <mxGraphModel dx="1785" dy="3400" grid="1" gridSize="13" guides="1" tooltips="1" connect="1" arrows="1" fold="1" page="1" pageScale="1" pageWidth="3300" pageHeight="2339" math="0" shadow="0">
      <root>
        <mxCell id="0" />
        <mxCell id="1" parent="0" />
        <mxCell id="_sHCaN5jdZJ6ooyh9Pkk-1" value="Склад материалов" style="swimlane;html=1;startSize=20;horizontal=0;" parent="1" vertex="1">
          <mxGeometry x="143" y="832" width="2444" height="165" as="geometry" />
        </mxCell>
        <mxCell id="_sHCaN5jdZJ6ooyh9Pkk-22" value="&lt;div&gt;Весь материал&lt;/div&gt;&lt;div&gt;в наличии&lt;/div&gt;" style="strokeWidth=2;html=1;shape=mxgraph.flowchart.decision;whiteSpace=wrap;" parent="_sHCaN5jdZJ6ooyh9Pkk-1" vertex="1">
          <mxGeometry x="130" y="33" width="140" height="99" as="geometry" />
        </mxCell>
        <mxCell id="C-qJGLl2mdES5r9WRgmB-43" value="да" style="text;html=1;strokeColor=none;fillColor=none;align=center;verticalAlign=middle;whiteSpace=wrap;rounded=0;" parent="_sHCaN5jdZJ6ooyh9Pkk-1" vertex="1">
          <mxGeometry x="234" y="115" width="60" height="30" as="geometry" />
        </mxCell>
        <mxCell id="C-qJGLl2mdES5r9WRgmB-47" value="нет" style="text;html=1;strokeColor=none;fillColor=none;align=center;verticalAlign=middle;whiteSpace=wrap;rounded=0;" parent="_sHCaN5jdZJ6ooyh9Pkk-1" vertex="1">
          <mxGeometry x="247" y="33" width="60" height="30" as="geometry" />
        </mxCell>
        <mxCell id="UV1Q603fVWl7I4yThYqV-25" value="*8 Получает изменный материал" style="rounded=0;whiteSpace=wrap;html=1;fontFamily=Helvetica;fontSize=12;fontColor=#000000;align=center;" parent="_sHCaN5jdZJ6ooyh9Pkk-1" vertex="1">
          <mxGeometry x="829" y="54.129999999999995" width="127" height="56.75" as="geometry" />
        </mxCell>
        <mxCell id="_sHCaN5jdZJ6ooyh9Pkk-9" value="Инф Система&lt;br&gt;" style="swimlane;html=1;startSize=20;horizontal=0;fillColor=#d5e8d4;strokeColor=#82b366;fillStyle=auto;swimlaneFillColor=#D5E8D4;" parent="1" vertex="1">
          <mxGeometry x="144" y="-36" width="2443" height="153" as="geometry" />
        </mxCell>
        <mxCell id="C-qJGLl2mdES5r9WRgmB-120" value="План" style="ellipse;whiteSpace=wrap;html=1;aspect=fixed;" parent="_sHCaN5jdZJ6ooyh9Pkk-9" vertex="1">
          <mxGeometry x="61.5" y="20.5" width="80" height="80" as="geometry" />
        </mxCell>
        <mxCell id="UV1Q603fVWl7I4yThYqV-21" value="*6 Сохраняет&lt;br&gt;&amp;nbsp;в журнал учета&lt;br&gt;разрешения" style="rounded=0;whiteSpace=wrap;html=1;fontFamily=Helvetica;fontSize=12;fontColor=#000000;align=center;" parent="_sHCaN5jdZJ6ooyh9Pkk-9" vertex="1">
          <mxGeometry x="610" y="49.619999999999884" width="127" height="56.75" as="geometry" />
        </mxCell>
        <mxCell id="UV1Q603fVWl7I4yThYqV-31" value="11 Сохраняет сопр&lt;br&gt;паспорт" style="rounded=0;whiteSpace=wrap;html=1;fontFamily=Helvetica;fontSize=12;fontColor=#000000;align=center;" parent="_sHCaN5jdZJ6ooyh9Pkk-9" vertex="1">
          <mxGeometry x="818" y="49.62000000000006" width="127" height="56.75" as="geometry" />
        </mxCell>
        <mxCell id="UV1Q603fVWl7I4yThYqV-68" value="25 Сохраняет" style="rounded=0;whiteSpace=wrap;html=1;" parent="_sHCaN5jdZJ6ooyh9Pkk-9" vertex="1">
          <mxGeometry x="2105" y="36.00000000000005" width="123" height="60.75" as="geometry" />
        </mxCell>
        <mxCell id="_sHCaN5jdZJ6ooyh9Pkk-5" value="Технолог&lt;br&gt;" style="swimlane;html=1;startSize=20;horizontal=0;" parent="1" vertex="1">
          <mxGeometry x="144" y="488" width="2444" height="162" as="geometry" />
        </mxCell>
        <mxCell id="UV1Q603fVWl7I4yThYqV-18" value="* 4 Рассмотрение предложения по замене материала" style="rounded=0;whiteSpace=wrap;html=1;fontFamily=Helvetica;fontSize=12;fontColor=#000000;align=center;" parent="_sHCaN5jdZJ6ooyh9Pkk-5" vertex="1">
          <mxGeometry x="519" y="52.61999999999989" width="127" height="56.75" as="geometry" />
        </mxCell>
        <mxCell id="_sHCaN5jdZJ6ooyh9Pkk-121" value="Контролер&lt;br&gt;" style="swimlane;html=1;startSize=20;horizontal=0;" parent="1" vertex="1">
          <mxGeometry x="144" y="-234" width="2443" height="198" as="geometry" />
        </mxCell>
        <mxCell id="8bC-5J5QOT-FsXnQ-OoM-23" style="edgeStyle=orthogonalEdgeStyle;rounded=0;orthogonalLoop=1;jettySize=auto;html=1;exitX=0.5;exitY=1;exitDx=0;exitDy=0;entryX=0.5;entryY=0;entryDx=0;entryDy=0;" parent="_sHCaN5jdZJ6ooyh9Pkk-121" source="8bC-5J5QOT-FsXnQ-OoM-21" target="8bC-5J5QOT-FsXnQ-OoM-22" edge="1">
          <mxGeometry relative="1" as="geometry" />
        </mxCell>
        <mxCell id="UV1Q603fVWl7I4yThYqV-67" style="edgeStyle=orthogonalEdgeStyle;rounded=0;orthogonalLoop=1;jettySize=auto;html=1;exitX=1;exitY=0.5;exitDx=0;exitDy=0;entryX=0;entryY=0.5;entryDx=0;entryDy=0;" parent="_sHCaN5jdZJ6ooyh9Pkk-121" source="8bC-5J5QOT-FsXnQ-OoM-21" target="UV1Q603fVWl7I4yThYqV-65" edge="1">
          <mxGeometry relative="1" as="geometry">
            <mxPoint x="2027" y="53.76000000000022" as="targetPoint" />
          </mxGeometry>
        </mxCell>
        <mxCell id="8bC-5J5QOT-FsXnQ-OoM-21" value="Контроль пройден" style="rhombus;whiteSpace=wrap;html=1;" parent="_sHCaN5jdZJ6ooyh9Pkk-121" vertex="1">
          <mxGeometry x="1741" y="3.5" width="141" height="100.5" as="geometry" />
        </mxCell>
        <mxCell id="8bC-5J5QOT-FsXnQ-OoM-22" value="23 Работа с несоответствиями" style="shape=process;whiteSpace=wrap;html=1;backgroundOutline=1;" parent="_sHCaN5jdZJ6ooyh9Pkk-121" vertex="1">
          <mxGeometry x="1741" y="130" width="145.5" height="56" as="geometry" />
        </mxCell>
        <mxCell id="8bC-5J5QOT-FsXnQ-OoM-24" value="да" style="text;html=1;strokeColor=none;fillColor=none;align=center;verticalAlign=middle;whiteSpace=wrap;rounded=0;" parent="_sHCaN5jdZJ6ooyh9Pkk-121" vertex="1">
          <mxGeometry x="1871" y="3.5" width="60" height="30" as="geometry" />
        </mxCell>
        <mxCell id="8bC-5J5QOT-FsXnQ-OoM-25" value="нет" style="text;html=1;strokeColor=none;fillColor=none;align=center;verticalAlign=middle;whiteSpace=wrap;rounded=0;" parent="_sHCaN5jdZJ6ooyh9Pkk-121" vertex="1">
          <mxGeometry x="1858" y="88.5" width="60" height="30" as="geometry" />
        </mxCell>
        <mxCell id="UV1Q603fVWl7I4yThYqV-43" value="16 Проверяет" style="rounded=0;whiteSpace=wrap;html=1;" parent="_sHCaN5jdZJ6ooyh9Pkk-121" vertex="1">
          <mxGeometry x="1106" y="88.50000000000006" width="123" height="60.75" as="geometry" />
        </mxCell>
        <mxCell id="UV1Q603fVWl7I4yThYqV-63" style="edgeStyle=orthogonalEdgeStyle;rounded=0;orthogonalLoop=1;jettySize=auto;html=1;exitX=1;exitY=0.5;exitDx=0;exitDy=0;entryX=0;entryY=0.5;entryDx=0;entryDy=0;" parent="_sHCaN5jdZJ6ooyh9Pkk-121" source="UV1Q603fVWl7I4yThYqV-61" target="8bC-5J5QOT-FsXnQ-OoM-21" edge="1">
          <mxGeometry relative="1" as="geometry" />
        </mxCell>
        <mxCell id="UV1Q603fVWl7I4yThYqV-61" value="22 Проверяет" style="rounded=0;whiteSpace=wrap;html=1;" parent="_sHCaN5jdZJ6ooyh9Pkk-121" vertex="1">
          <mxGeometry x="1490" y="23.38000000000006" width="123" height="60.75" as="geometry" />
        </mxCell>
        <mxCell id="UV1Q603fVWl7I4yThYqV-65" value="&lt;div&gt;24 Устанавливает&lt;/div&gt;&lt;div&gt;признак готовности годных ДСЕ&lt;/div&gt;" style="rounded=0;whiteSpace=wrap;html=1;" parent="_sHCaN5jdZJ6ooyh9Pkk-121" vertex="1">
          <mxGeometry x="2105" y="23.380000000000056" width="123" height="60.75" as="geometry" />
        </mxCell>
        <mxCell id="dNxyNK7c78bLwvsdeMH5-21" value="Мастер&lt;br&gt;" style="swimlane;html=1;startSize=20;horizontal=0;" parent="1" vertex="1">
          <mxGeometry x="143" y="247" width="2444" height="241" as="geometry" />
        </mxCell>
        <mxCell id="xzNArLJhnQRcFR4AUH3S-1" style="edgeStyle=orthogonalEdgeStyle;rounded=0;orthogonalLoop=1;jettySize=auto;html=1;exitX=1;exitY=0.5;exitDx=0;exitDy=0;entryX=0.25;entryY=0;entryDx=0;entryDy=0;" parent="dNxyNK7c78bLwvsdeMH5-21" target="C-qJGLl2mdES5r9WRgmB-57" edge="1">
          <mxGeometry relative="1" as="geometry">
            <Array as="points">
              <mxPoint x="1937" y="33.06" />
            </Array>
            <mxPoint x="1878" y="33.55999999999949" as="sourcePoint" />
          </mxGeometry>
        </mxCell>
        <mxCell id="8bC-5J5QOT-FsXnQ-OoM-12" style="edgeStyle=orthogonalEdgeStyle;rounded=0;orthogonalLoop=1;jettySize=auto;html=1;exitX=0.5;exitY=1;exitDx=0;exitDy=0;exitPerimeter=0;entryX=0;entryY=0.5;entryDx=0;entryDy=0;entryPerimeter=0;" parent="dNxyNK7c78bLwvsdeMH5-21" target="_sHCaN5jdZJ6ooyh9Pkk-70" edge="1">
          <mxGeometry relative="1" as="geometry">
            <Array as="points">
              <mxPoint x="1379" y="190.06" />
              <mxPoint x="1569" y="190.06" />
            </Array>
            <mxPoint x="1380.5" y="163.05999999999955" as="sourcePoint" />
          </mxGeometry>
        </mxCell>
        <mxCell id="_sHCaN5jdZJ6ooyh9Pkk-42" value="&lt;div&gt;Изготовление ДСЕ завершено(выполнена последняя операция на паспорте)&lt;/div&gt;" style="strokeWidth=2;html=1;shape=mxgraph.flowchart.decision;whiteSpace=wrap;" parent="dNxyNK7c78bLwvsdeMH5-21" vertex="1">
          <mxGeometry x="1270" y="40.06" width="221" height="138" as="geometry" />
        </mxCell>
        <mxCell id="C-qJGLl2mdES5r9WRgmB-2" value="да" style="text;html=1;strokeColor=none;fillColor=none;align=center;verticalAlign=middle;whiteSpace=wrap;rounded=0;" parent="dNxyNK7c78bLwvsdeMH5-21" vertex="1">
          <mxGeometry x="1417" y="36.5" width="60" height="30" as="geometry" />
        </mxCell>
        <mxCell id="C-qJGLl2mdES5r9WRgmB-46" value="нет" style="text;html=1;strokeColor=none;fillColor=none;align=center;verticalAlign=middle;whiteSpace=wrap;rounded=0;" parent="dNxyNK7c78bLwvsdeMH5-21" vertex="1">
          <mxGeometry x="1417" y="152.82" width="60" height="30" as="geometry" />
        </mxCell>
        <mxCell id="UV1Q603fVWl7I4yThYqV-47" style="edgeStyle=orthogonalEdgeStyle;rounded=0;orthogonalLoop=1;jettySize=auto;html=1;exitX=0.5;exitY=1;exitDx=0;exitDy=0;exitPerimeter=0;entryX=0;entryY=0.5;entryDx=0;entryDy=0;" parent="dNxyNK7c78bLwvsdeMH5-21" source="_sHCaN5jdZJ6ooyh9Pkk-70" target="UV1Q603fVWl7I4yThYqV-46" edge="1">
          <mxGeometry relative="1" as="geometry" />
        </mxCell>
        <mxCell id="UV1Q603fVWl7I4yThYqV-78" style="edgeStyle=orthogonalEdgeStyle;rounded=0;orthogonalLoop=1;jettySize=auto;html=1;exitX=0.5;exitY=0;exitDx=0;exitDy=0;exitPerimeter=0;" parent="dNxyNK7c78bLwvsdeMH5-21" source="_sHCaN5jdZJ6ooyh9Pkk-70" edge="1">
          <mxGeometry relative="1" as="geometry">
            <mxPoint x="1755" y="39" as="targetPoint" />
            <Array as="points">
              <mxPoint x="1663" y="39" />
            </Array>
          </mxGeometry>
        </mxCell>
        <mxCell id="_sHCaN5jdZJ6ooyh9Pkk-70" value="&lt;div&gt;След операция&amp;nbsp;&lt;/div&gt;&lt;div&gt;в этом&amp;nbsp;&lt;/div&gt;&lt;div&gt;цехе&lt;/div&gt;" style="strokeWidth=2;html=1;shape=mxgraph.flowchart.decision;whiteSpace=wrap;" parent="dNxyNK7c78bLwvsdeMH5-21" vertex="1">
          <mxGeometry x="1586" y="45.56" width="153" height="117.5" as="geometry" />
        </mxCell>
        <mxCell id="C-qJGLl2mdES5r9WRgmB-115" style="edgeStyle=orthogonalEdgeStyle;rounded=0;orthogonalLoop=1;jettySize=auto;html=1;exitX=0.5;exitY=1;exitDx=0;exitDy=0;exitPerimeter=0;" parent="dNxyNK7c78bLwvsdeMH5-21" source="_sHCaN5jdZJ6ooyh9Pkk-70" target="_sHCaN5jdZJ6ooyh9Pkk-70" edge="1">
          <mxGeometry relative="1" as="geometry" />
        </mxCell>
        <mxCell id="C-qJGLl2mdES5r9WRgmB-44" value="нет" style="text;html=1;strokeColor=none;fillColor=none;align=center;verticalAlign=middle;whiteSpace=wrap;rounded=0;" parent="dNxyNK7c78bLwvsdeMH5-21" vertex="1">
          <mxGeometry x="1686" y="148.06" width="60" height="30" as="geometry" />
        </mxCell>
        <mxCell id="C-qJGLl2mdES5r9WRgmB-121" value="15.3 Проверяет выполненную работу" style="rounded=0;whiteSpace=wrap;html=1;" parent="dNxyNK7c78bLwvsdeMH5-21" vertex="1">
          <mxGeometry x="1107" y="132.31" width="123" height="60.75" as="geometry" />
        </mxCell>
        <mxCell id="C-qJGLl2mdES5r9WRgmB-57" value="20 Выполнение&lt;br&gt;задания" style="shape=process;whiteSpace=wrap;html=1;backgroundOutline=1;" parent="dNxyNK7c78bLwvsdeMH5-21" vertex="1">
          <mxGeometry x="1907" y="133.06" width="120" height="60" as="geometry" />
        </mxCell>
        <mxCell id="MR71HtGChq7Dg4qI-cub-4" value="" style="endArrow=none;dashed=1;html=1;rounded=0;" parent="dNxyNK7c78bLwvsdeMH5-21" edge="1">
          <mxGeometry width="50" height="50" relative="1" as="geometry">
            <mxPoint x="1053" y="441.81" as="sourcePoint" />
            <mxPoint x="1053" y="123" as="targetPoint" />
          </mxGeometry>
        </mxCell>
        <mxCell id="0C7dTbFZOeXwOhURuXJz-37" value="" style="endArrow=none;dashed=1;html=1;rounded=0;" parent="dNxyNK7c78bLwvsdeMH5-21" edge="1">
          <mxGeometry width="50" height="50" relative="1" as="geometry">
            <mxPoint x="1053" y="123" as="sourcePoint" />
            <mxPoint x="1261" y="123" as="targetPoint" />
          </mxGeometry>
        </mxCell>
        <mxCell id="UV1Q603fVWl7I4yThYqV-38" style="edgeStyle=orthogonalEdgeStyle;rounded=0;orthogonalLoop=1;jettySize=auto;html=1;exitX=0.5;exitY=1;exitDx=0;exitDy=0;entryX=0.5;entryY=0;entryDx=0;entryDy=0;" parent="dNxyNK7c78bLwvsdeMH5-21" source="UV1Q603fVWl7I4yThYqV-35" target="UV1Q603fVWl7I4yThYqV-37" edge="1">
          <mxGeometry relative="1" as="geometry" />
        </mxCell>
        <mxCell id="UV1Q603fVWl7I4yThYqV-35" value="13 Получает материал" style="rounded=0;whiteSpace=wrap;html=1;fontFamily=Helvetica;fontSize=12;fontColor=#000000;align=center;" parent="dNxyNK7c78bLwvsdeMH5-21" vertex="1">
          <mxGeometry x="910" y="13.81000000000006" width="127" height="56.75" as="geometry" />
        </mxCell>
        <mxCell id="UV1Q603fVWl7I4yThYqV-37" value="14 Создает СЗ" style="rounded=0;whiteSpace=wrap;html=1;fontFamily=Helvetica;fontSize=12;fontColor=#000000;align=center;" parent="dNxyNK7c78bLwvsdeMH5-21" vertex="1">
          <mxGeometry x="910" y="139.44" width="127" height="56.75" as="geometry" />
        </mxCell>
        <mxCell id="UV1Q603fVWl7I4yThYqV-46" value="&lt;div&gt;17 Отправляет&amp;nbsp; на склад для передачи&amp;nbsp;&lt;/div&gt;далее&lt;div&gt;по маршруту&lt;/div&gt;" style="rounded=0;whiteSpace=wrap;html=1;" parent="dNxyNK7c78bLwvsdeMH5-21" vertex="1">
          <mxGeometry x="1755" y="162.00000000000006" width="123" height="60.75" as="geometry" />
        </mxCell>
        <mxCell id="UV1Q603fVWl7I4yThYqV-50" value="&lt;div&gt;19 Формирует новое&lt;/div&gt;&lt;div&gt;задание&lt;/div&gt;" style="rounded=0;whiteSpace=wrap;html=1;" parent="dNxyNK7c78bLwvsdeMH5-21" vertex="1">
          <mxGeometry x="1755" y="5.750000000000087" width="123" height="60.75" as="geometry" />
        </mxCell>
        <mxCell id="UV1Q603fVWl7I4yThYqV-53" value="да" style="text;html=1;strokeColor=none;fillColor=none;align=center;verticalAlign=middle;whiteSpace=wrap;rounded=0;" parent="dNxyNK7c78bLwvsdeMH5-21" vertex="1">
          <mxGeometry x="1679" y="1.7763568394002505e-15" width="60" height="30" as="geometry" />
        </mxCell>
        <mxCell id="UV1Q603fVWl7I4yThYqV-55" value="&lt;div&gt;21 Проверяет&amp;nbsp;&lt;/div&gt;&lt;div&gt;работу&lt;/div&gt;" style="rounded=0;whiteSpace=wrap;html=1;" parent="dNxyNK7c78bLwvsdeMH5-21" vertex="1">
          <mxGeometry x="1491" y="8.31000000000006" width="123" height="60.75" as="geometry" />
        </mxCell>
        <mxCell id="UV1Q603fVWl7I4yThYqV-60" value="" style="endArrow=classic;html=1;rounded=0;entryX=0;entryY=0.5;entryDx=0;entryDy=0;exitX=0.5;exitY=0;exitDx=0;exitDy=0;exitPerimeter=0;" parent="dNxyNK7c78bLwvsdeMH5-21" source="_sHCaN5jdZJ6ooyh9Pkk-42" target="UV1Q603fVWl7I4yThYqV-55" edge="1">
          <mxGeometry width="50" height="50" relative="1" as="geometry">
            <mxPoint x="1417" y="108" as="sourcePoint" />
            <mxPoint x="1467" y="58" as="targetPoint" />
          </mxGeometry>
        </mxCell>
        <mxCell id="UV1Q603fVWl7I4yThYqV-72" value="27 Отправляет на склад ДСЕ" style="rounded=0;whiteSpace=wrap;html=1;" parent="dNxyNK7c78bLwvsdeMH5-21" vertex="1">
          <mxGeometry x="2106" y="58.00000000000006" width="123" height="60.75" as="geometry" />
        </mxCell>
        <mxCell id="POx_5kQ7LqTyoPPEA4pU-12" value="Склад ДСЕ" style="swimlane;html=1;startSize=20;horizontal=0;" parent="1" vertex="1">
          <mxGeometry x="143" y="997" width="2444" height="121" as="geometry" />
        </mxCell>
        <mxCell id="_sHCaN5jdZJ6ooyh9Pkk-66" value="" style="strokeWidth=2;html=1;shape=mxgraph.flowchart.start_2;whiteSpace=wrap;" parent="POx_5kQ7LqTyoPPEA4pU-12" vertex="1">
          <mxGeometry x="2141" y="35.5" width="53" height="50" as="geometry" />
        </mxCell>
        <mxCell id="ZADBv-inxY44p_gtCI0u-1" value="18 Передача в следующий цех" style="shape=process;whiteSpace=wrap;html=1;backgroundOutline=1;" parent="POx_5kQ7LqTyoPPEA4pU-12" vertex="1">
          <mxGeometry x="1756.5" y="30.5" width="120" height="60" as="geometry" />
        </mxCell>
        <mxCell id="dNxyNK7c78bLwvsdeMH5-22" value="Рабочий&lt;br&gt;" style="swimlane;html=1;startSize=20;horizontal=0;" parent="1" vertex="1">
          <mxGeometry x="143" y="650" width="2444" height="182" as="geometry" />
        </mxCell>
        <mxCell id="_sHCaN5jdZJ6ooyh9Pkk-37" value="&lt;div&gt;15.2 Выполняет работу по сменному заданию&lt;/div&gt;" style="rounded=0;whiteSpace=wrap;html=1;fontFamily=Helvetica;fontSize=12;fontColor=#000000;align=center;" parent="dNxyNK7c78bLwvsdeMH5-22" vertex="1">
          <mxGeometry x="1105" y="62.62" width="127" height="54.37" as="geometry" />
        </mxCell>
        <mxCell id="_sHCaN5jdZJ6ooyh9Pkk-43" value="" style="shape=callout;whiteSpace=wrap;html=1;perimeter=calloutPerimeter;size=6;position=0;base=13;" parent="dNxyNK7c78bLwvsdeMH5-22" vertex="1">
          <mxGeometry x="1163.25" y="38.25" width="26" as="geometry" />
        </mxCell>
        <mxCell id="UV1Q603fVWl7I4yThYqV-41" style="edgeStyle=orthogonalEdgeStyle;rounded=0;orthogonalLoop=1;jettySize=auto;html=1;entryX=0;entryY=0.5;entryDx=0;entryDy=0;" parent="dNxyNK7c78bLwvsdeMH5-22" source="C-qJGLl2mdES5r9WRgmB-135" target="_sHCaN5jdZJ6ooyh9Pkk-37" edge="1">
          <mxGeometry relative="1" as="geometry" />
        </mxCell>
        <mxCell id="C-qJGLl2mdES5r9WRgmB-135" value="&lt;div&gt;15.1 Получает материал и сменное задание от мастера&lt;/div&gt;" style="rounded=0;whiteSpace=wrap;html=1;fontFamily=Helvetica;fontSize=12;fontColor=#000000;align=center;" parent="dNxyNK7c78bLwvsdeMH5-22" vertex="1">
          <mxGeometry x="910" y="61.43" width="127" height="56.75" as="geometry" />
        </mxCell>
        <mxCell id="POx_5kQ7LqTyoPPEA4pU-56" value="" style="endArrow=none;dashed=1;html=1;rounded=0;" parent="dNxyNK7c78bLwvsdeMH5-22" edge="1">
          <mxGeometry width="50" height="50" relative="1" as="geometry">
            <mxPoint x="884" y="176" as="sourcePoint" />
            <mxPoint x="1261" y="176" as="targetPoint" />
          </mxGeometry>
        </mxCell>
        <mxCell id="8bC-5J5QOT-FsXnQ-OoM-1" value="15 Выполнение задания" style="text;html=1;strokeColor=none;fillColor=none;align=center;verticalAlign=middle;whiteSpace=wrap;rounded=0;" parent="dNxyNK7c78bLwvsdeMH5-22" vertex="1">
          <mxGeometry x="1037" y="130" width="97.25" height="45.63" as="geometry" />
        </mxCell>
        <mxCell id="POx_5kQ7LqTyoPPEA4pU-57" value="" style="endArrow=none;dashed=1;html=1;rounded=0;" parent="dNxyNK7c78bLwvsdeMH5-22" edge="1">
          <mxGeometry width="50" height="50" relative="1" as="geometry">
            <mxPoint x="884" y="37" as="sourcePoint" />
            <mxPoint x="1053" y="37" as="targetPoint" />
          </mxGeometry>
        </mxCell>
        <mxCell id="POx_5kQ7LqTyoPPEA4pU-54" value="" style="endArrow=none;dashed=1;html=1;rounded=0;" parent="dNxyNK7c78bLwvsdeMH5-22" edge="1">
          <mxGeometry width="50" height="50" relative="1" as="geometry">
            <mxPoint x="1261" y="175.63" as="sourcePoint" />
            <mxPoint x="1261" y="-286" as="targetPoint" />
          </mxGeometry>
        </mxCell>
        <mxCell id="0C7dTbFZOeXwOhURuXJz-36" value="" style="endArrow=none;dashed=1;html=1;rounded=0;" parent="dNxyNK7c78bLwvsdeMH5-22" edge="1">
          <mxGeometry width="50" height="50" relative="1" as="geometry">
            <mxPoint x="884" y="39" as="sourcePoint" />
            <mxPoint x="884" y="175.63" as="targetPoint" />
          </mxGeometry>
        </mxCell>
        <mxCell id="h1UE1hsjYI9nLtQlhSLu-12" value="Пдг" style="swimlane;html=1;startSize=20;horizontal=0;" parent="1" vertex="1">
          <mxGeometry x="143" y="120" width="2444" height="128.5" as="geometry" />
        </mxCell>
        <mxCell id="0C7dTbFZOeXwOhURuXJz-6" value="*2 Формирует заявку на материала на центральный склад" style="rounded=0;whiteSpace=wrap;html=1;fontFamily=Helvetica;fontSize=12;fontColor=#000000;align=center;direction=south;" parent="h1UE1hsjYI9nLtQlhSLu-12" vertex="1">
          <mxGeometry x="234" y="15" width="127" height="55" as="geometry" />
        </mxCell>
        <mxCell id="UV1Q603fVWl7I4yThYqV-1" value="1 Запрашивает наличие материала на складе" style="rounded=0;whiteSpace=wrap;html=1;fontFamily=Helvetica;fontSize=12;fontColor=#000000;align=center;" parent="h1UE1hsjYI9nLtQlhSLu-12" vertex="1">
          <mxGeometry x="39" y="14.999999999999996" width="127" height="56.75" as="geometry" />
        </mxCell>
        <mxCell id="UV1Q603fVWl7I4yThYqV-19" value="*5 Разрешающие записи в электронном журнале" style="rounded=0;whiteSpace=wrap;html=1;fontFamily=Helvetica;fontSize=12;fontColor=#000000;align=center;" parent="h1UE1hsjYI9nLtQlhSLu-12" vertex="1">
          <mxGeometry x="520" y="26.749999999999886" width="127" height="56.75" as="geometry" />
        </mxCell>
        <mxCell id="UV1Q603fVWl7I4yThYqV-28" value="10 Создает СП" style="rounded=0;whiteSpace=wrap;html=1;fontFamily=Helvetica;fontSize=12;fontColor=#000000;align=center;" parent="h1UE1hsjYI9nLtQlhSLu-12" vertex="1">
          <mxGeometry x="728" y="15.000000000000057" width="127" height="56.75" as="geometry" />
        </mxCell>
        <mxCell id="UV1Q603fVWl7I4yThYqV-33" value="12 Печатает СП" style="rounded=0;whiteSpace=wrap;html=1;fontFamily=Helvetica;fontSize=12;fontColor=#000000;align=center;" parent="h1UE1hsjYI9nLtQlhSLu-12" vertex="1">
          <mxGeometry x="910" y="26.750000000000053" width="127" height="56.75" as="geometry" />
        </mxCell>
        <mxCell id="UV1Q603fVWl7I4yThYqV-70" value="26 Проставляет отметки&lt;br&gt;о выполнении позиции плана" style="rounded=0;whiteSpace=wrap;html=1;" parent="h1UE1hsjYI9nLtQlhSLu-12" vertex="1">
          <mxGeometry x="2106" y="31.630000000000052" width="123" height="60.75" as="geometry" />
        </mxCell>
        <mxCell id="UV1Q603fVWl7I4yThYqV-12" value="*3 Заявка на замену материала" style="rounded=0;whiteSpace=wrap;html=1;fontFamily=Helvetica;fontSize=12;fontColor=#000000;align=center;" parent="h1UE1hsjYI9nLtQlhSLu-12" vertex="1">
          <mxGeometry x="380" y="26.75" width="127" height="56.75" as="geometry" />
        </mxCell>
        <mxCell id="0C7dTbFZOeXwOhURuXJz-10" value="Центральный Склад" style="swimlane;html=1;startSize=20;horizontal=0;" parent="1" vertex="1">
          <mxGeometry x="144" y="1118" width="2443" height="221" as="geometry" />
        </mxCell>
        <mxCell id="UV1Q603fVWl7I4yThYqV-15" style="edgeStyle=orthogonalEdgeStyle;rounded=0;orthogonalLoop=1;jettySize=auto;html=1;exitX=0.5;exitY=1;exitDx=0;exitDy=0;exitPerimeter=0;entryX=0;entryY=0.5;entryDx=0;entryDy=0;" parent="0C7dTbFZOeXwOhURuXJz-10" source="0C7dTbFZOeXwOhURuXJz-13" target="UV1Q603fVWl7I4yThYqV-13" edge="1">
          <mxGeometry relative="1" as="geometry" />
        </mxCell>
        <mxCell id="0C7dTbFZOeXwOhURuXJz-13" value="&lt;div&gt;Материал&lt;/div&gt;&lt;div&gt;в наличии&lt;/div&gt;" style="strokeWidth=2;html=1;shape=mxgraph.flowchart.decision;whiteSpace=wrap;" parent="0C7dTbFZOeXwOhURuXJz-10" vertex="1">
          <mxGeometry x="298" y="50" width="140" height="99" as="geometry" />
        </mxCell>
        <mxCell id="0C7dTbFZOeXwOhURuXJz-14" value="нет" style="text;html=1;strokeColor=none;fillColor=none;align=center;verticalAlign=middle;whiteSpace=wrap;rounded=0;" parent="0C7dTbFZOeXwOhURuXJz-10" vertex="1">
          <mxGeometry x="389" y="22" width="60" height="30" as="geometry" />
        </mxCell>
        <mxCell id="0C7dTbFZOeXwOhURuXJz-15" value="да" style="text;html=1;strokeColor=none;fillColor=none;align=center;verticalAlign=middle;whiteSpace=wrap;rounded=0;" parent="0C7dTbFZOeXwOhURuXJz-10" vertex="1">
          <mxGeometry x="402" y="117" width="60" height="30" as="geometry" />
        </mxCell>
        <mxCell id="UV1Q603fVWl7I4yThYqV-13" value="9 Отправляет на склад материалов" style="rounded=0;whiteSpace=wrap;html=1;fontFamily=Helvetica;fontSize=12;fontColor=#000000;align=center;" parent="0C7dTbFZOeXwOhURuXJz-10" vertex="1">
          <mxGeometry x="727" y="149" width="127" height="56.75" as="geometry" />
        </mxCell>
        <mxCell id="UV1Q603fVWl7I4yThYqV-16" value="*7 Отправляет изменный материал на склад материалов" style="rounded=0;whiteSpace=wrap;html=1;fontFamily=Helvetica;fontSize=12;fontColor=#000000;align=center;" parent="0C7dTbFZOeXwOhURuXJz-10" vertex="1">
          <mxGeometry x="828" y="36.999999999999886" width="127" height="56.75" as="geometry" />
        </mxCell>
        <mxCell id="0C7dTbFZOeXwOhURuXJz-77" style="edgeStyle=orthogonalEdgeStyle;rounded=0;orthogonalLoop=1;jettySize=auto;html=1;exitX=0.5;exitY=0;exitDx=0;exitDy=0;entryX=0.5;entryY=0;entryDx=0;entryDy=0;entryPerimeter=0;" parent="1" source="0C7dTbFZOeXwOhURuXJz-6" target="0C7dTbFZOeXwOhURuXJz-13" edge="1">
          <mxGeometry relative="1" as="geometry">
            <Array as="points">
              <mxPoint x="512" y="162" />
            </Array>
          </mxGeometry>
        </mxCell>
        <mxCell id="0C7dTbFZOeXwOhURuXJz-89" style="edgeStyle=orthogonalEdgeStyle;rounded=0;orthogonalLoop=1;jettySize=auto;html=1;exitX=0.5;exitY=1;exitDx=0;exitDy=0;exitPerimeter=0;entryX=0;entryY=0.5;entryDx=0;entryDy=0;" parent="1" source="_sHCaN5jdZJ6ooyh9Pkk-22" edge="1" target="UV1Q603fVWl7I4yThYqV-28">
          <mxGeometry relative="1" as="geometry">
            <mxPoint x="845" y="182" as="targetPoint" />
            <Array as="points">
              <mxPoint x="343" y="984" />
              <mxPoint x="832" y="984" />
              <mxPoint x="832" y="163" />
              <mxPoint x="871" y="163" />
            </Array>
          </mxGeometry>
        </mxCell>
        <mxCell id="UV1Q603fVWl7I4yThYqV-2" style="edgeStyle=orthogonalEdgeStyle;rounded=0;orthogonalLoop=1;jettySize=auto;html=1;exitX=0.5;exitY=1;exitDx=0;exitDy=0;" parent="1" source="C-qJGLl2mdES5r9WRgmB-120" target="UV1Q603fVWl7I4yThYqV-1" edge="1">
          <mxGeometry relative="1" as="geometry" />
        </mxCell>
        <mxCell id="UV1Q603fVWl7I4yThYqV-3" style="edgeStyle=orthogonalEdgeStyle;rounded=0;orthogonalLoop=1;jettySize=auto;html=1;exitX=0.5;exitY=1;exitDx=0;exitDy=0;entryX=0;entryY=0.5;entryDx=0;entryDy=0;entryPerimeter=0;" parent="1" source="UV1Q603fVWl7I4yThYqV-1" target="_sHCaN5jdZJ6ooyh9Pkk-22" edge="1">
          <mxGeometry relative="1" as="geometry" />
        </mxCell>
        <mxCell id="0C7dTbFZOeXwOhURuXJz-75" style="edgeStyle=orthogonalEdgeStyle;rounded=0;orthogonalLoop=1;jettySize=auto;html=1;exitX=1;exitY=0.5;exitDx=0;exitDy=0;exitPerimeter=0;entryX=1.016;entryY=0.521;entryDx=0;entryDy=0;entryPerimeter=0;" parent="1" source="_sHCaN5jdZJ6ooyh9Pkk-22" target="0C7dTbFZOeXwOhURuXJz-6" edge="1">
          <mxGeometry relative="1" as="geometry">
            <mxPoint x="442" y="192.99987792968795" as="targetPoint" />
          </mxGeometry>
        </mxCell>
        <mxCell id="UV1Q603fVWl7I4yThYqV-20" style="edgeStyle=orthogonalEdgeStyle;rounded=0;orthogonalLoop=1;jettySize=auto;html=1;entryX=0.5;entryY=1;entryDx=0;entryDy=0;" parent="1" source="UV1Q603fVWl7I4yThYqV-18" target="UV1Q603fVWl7I4yThYqV-19" edge="1">
          <mxGeometry relative="1" as="geometry" />
        </mxCell>
        <mxCell id="UV1Q603fVWl7I4yThYqV-22" style="edgeStyle=orthogonalEdgeStyle;rounded=0;orthogonalLoop=1;jettySize=auto;html=1;exitX=0.5;exitY=0;exitDx=0;exitDy=0;entryX=0;entryY=0.5;entryDx=0;entryDy=0;" parent="1" source="UV1Q603fVWl7I4yThYqV-19" target="UV1Q603fVWl7I4yThYqV-21" edge="1">
          <mxGeometry relative="1" as="geometry" />
        </mxCell>
        <mxCell id="UV1Q603fVWl7I4yThYqV-24" style="edgeStyle=orthogonalEdgeStyle;rounded=0;orthogonalLoop=1;jettySize=auto;html=1;exitX=0.5;exitY=1;exitDx=0;exitDy=0;entryX=0;entryY=0.5;entryDx=0;entryDy=0;" parent="1" source="UV1Q603fVWl7I4yThYqV-21" target="UV1Q603fVWl7I4yThYqV-16" edge="1">
          <mxGeometry relative="1" as="geometry" />
        </mxCell>
        <mxCell id="UV1Q603fVWl7I4yThYqV-26" style="edgeStyle=orthogonalEdgeStyle;rounded=0;orthogonalLoop=1;jettySize=auto;html=1;exitX=0.5;exitY=0;exitDx=0;exitDy=0;entryX=0.5;entryY=1;entryDx=0;entryDy=0;" parent="1" source="UV1Q603fVWl7I4yThYqV-16" target="UV1Q603fVWl7I4yThYqV-25" edge="1">
          <mxGeometry relative="1" as="geometry" />
        </mxCell>
        <mxCell id="UV1Q603fVWl7I4yThYqV-29" style="edgeStyle=orthogonalEdgeStyle;rounded=0;orthogonalLoop=1;jettySize=auto;html=1;exitX=0.5;exitY=0;exitDx=0;exitDy=0;entryX=1;entryY=0.5;entryDx=0;entryDy=0;" parent="1" source="UV1Q603fVWl7I4yThYqV-25" target="UV1Q603fVWl7I4yThYqV-28" edge="1">
          <mxGeometry relative="1" as="geometry" />
        </mxCell>
        <mxCell id="UV1Q603fVWl7I4yThYqV-30" style="edgeStyle=orthogonalEdgeStyle;rounded=0;orthogonalLoop=1;jettySize=auto;html=1;exitX=0.5;exitY=0;exitDx=0;exitDy=0;entryX=0.5;entryY=1;entryDx=0;entryDy=0;" parent="1" source="UV1Q603fVWl7I4yThYqV-13" target="UV1Q603fVWl7I4yThYqV-28" edge="1">
          <mxGeometry relative="1" as="geometry" />
        </mxCell>
        <mxCell id="UV1Q603fVWl7I4yThYqV-32" style="edgeStyle=orthogonalEdgeStyle;rounded=0;orthogonalLoop=1;jettySize=auto;html=1;entryX=0;entryY=0.5;entryDx=0;entryDy=0;" parent="1" source="UV1Q603fVWl7I4yThYqV-28" target="UV1Q603fVWl7I4yThYqV-31" edge="1">
          <mxGeometry relative="1" as="geometry" />
        </mxCell>
        <mxCell id="UV1Q603fVWl7I4yThYqV-34" style="edgeStyle=orthogonalEdgeStyle;rounded=0;orthogonalLoop=1;jettySize=auto;html=1;exitX=1;exitY=0.5;exitDx=0;exitDy=0;entryX=0.5;entryY=0;entryDx=0;entryDy=0;" parent="1" source="UV1Q603fVWl7I4yThYqV-31" target="UV1Q603fVWl7I4yThYqV-33" edge="1">
          <mxGeometry relative="1" as="geometry" />
        </mxCell>
        <mxCell id="UV1Q603fVWl7I4yThYqV-36" style="edgeStyle=orthogonalEdgeStyle;rounded=0;orthogonalLoop=1;jettySize=auto;html=1;exitX=0.5;exitY=1;exitDx=0;exitDy=0;entryX=0.5;entryY=0;entryDx=0;entryDy=0;" parent="1" source="UV1Q603fVWl7I4yThYqV-33" target="UV1Q603fVWl7I4yThYqV-35" edge="1">
          <mxGeometry relative="1" as="geometry" />
        </mxCell>
        <mxCell id="UV1Q603fVWl7I4yThYqV-40" style="edgeStyle=orthogonalEdgeStyle;rounded=0;orthogonalLoop=1;jettySize=auto;html=1;entryX=0.5;entryY=0;entryDx=0;entryDy=0;" parent="1" source="UV1Q603fVWl7I4yThYqV-37" target="C-qJGLl2mdES5r9WRgmB-135" edge="1">
          <mxGeometry relative="1" as="geometry" />
        </mxCell>
        <mxCell id="UV1Q603fVWl7I4yThYqV-42" style="edgeStyle=orthogonalEdgeStyle;rounded=0;orthogonalLoop=1;jettySize=auto;html=1;entryX=0.5;entryY=1;entryDx=0;entryDy=0;" parent="1" source="_sHCaN5jdZJ6ooyh9Pkk-37" target="C-qJGLl2mdES5r9WRgmB-121" edge="1">
          <mxGeometry relative="1" as="geometry" />
        </mxCell>
        <mxCell id="UV1Q603fVWl7I4yThYqV-44" style="edgeStyle=orthogonalEdgeStyle;rounded=0;orthogonalLoop=1;jettySize=auto;html=1;exitX=0.5;exitY=0;exitDx=0;exitDy=0;entryX=0.5;entryY=1;entryDx=0;entryDy=0;" parent="1" source="C-qJGLl2mdES5r9WRgmB-121" target="UV1Q603fVWl7I4yThYqV-43" edge="1">
          <mxGeometry relative="1" as="geometry" />
        </mxCell>
        <mxCell id="UV1Q603fVWl7I4yThYqV-45" style="edgeStyle=orthogonalEdgeStyle;rounded=0;orthogonalLoop=1;jettySize=auto;html=1;exitX=1;exitY=0.5;exitDx=0;exitDy=0;entryX=0;entryY=0.5;entryDx=0;entryDy=0;entryPerimeter=0;" parent="1" source="UV1Q603fVWl7I4yThYqV-43" target="_sHCaN5jdZJ6ooyh9Pkk-42" edge="1">
          <mxGeometry relative="1" as="geometry" />
        </mxCell>
        <mxCell id="UV1Q603fVWl7I4yThYqV-49" style="edgeStyle=orthogonalEdgeStyle;rounded=0;orthogonalLoop=1;jettySize=auto;html=1;exitX=0.5;exitY=1;exitDx=0;exitDy=0;entryX=0.5;entryY=0;entryDx=0;entryDy=0;" parent="1" source="UV1Q603fVWl7I4yThYqV-46" target="ZADBv-inxY44p_gtCI0u-1" edge="1">
          <mxGeometry relative="1" as="geometry" />
        </mxCell>
        <mxCell id="UV1Q603fVWl7I4yThYqV-62" style="edgeStyle=orthogonalEdgeStyle;rounded=0;orthogonalLoop=1;jettySize=auto;html=1;exitX=0.5;exitY=0;exitDx=0;exitDy=0;entryX=0.5;entryY=1;entryDx=0;entryDy=0;" parent="1" source="UV1Q603fVWl7I4yThYqV-55" target="UV1Q603fVWl7I4yThYqV-61" edge="1">
          <mxGeometry relative="1" as="geometry" />
        </mxCell>
        <mxCell id="UV1Q603fVWl7I4yThYqV-69" style="edgeStyle=orthogonalEdgeStyle;rounded=0;orthogonalLoop=1;jettySize=auto;html=1;exitX=0.5;exitY=1;exitDx=0;exitDy=0;entryX=0.5;entryY=0;entryDx=0;entryDy=0;" parent="1" source="UV1Q603fVWl7I4yThYqV-65" target="UV1Q603fVWl7I4yThYqV-68" edge="1">
          <mxGeometry relative="1" as="geometry" />
        </mxCell>
        <mxCell id="UV1Q603fVWl7I4yThYqV-71" style="edgeStyle=orthogonalEdgeStyle;rounded=0;orthogonalLoop=1;jettySize=auto;html=1;entryX=0.5;entryY=0;entryDx=0;entryDy=0;" parent="1" source="UV1Q603fVWl7I4yThYqV-68" target="UV1Q603fVWl7I4yThYqV-70" edge="1">
          <mxGeometry relative="1" as="geometry" />
        </mxCell>
        <mxCell id="UV1Q603fVWl7I4yThYqV-73" style="edgeStyle=orthogonalEdgeStyle;rounded=0;orthogonalLoop=1;jettySize=auto;html=1;entryX=0.5;entryY=0;entryDx=0;entryDy=0;" parent="1" source="UV1Q603fVWl7I4yThYqV-70" target="UV1Q603fVWl7I4yThYqV-72" edge="1">
          <mxGeometry relative="1" as="geometry" />
        </mxCell>
        <mxCell id="UV1Q603fVWl7I4yThYqV-74" style="edgeStyle=orthogonalEdgeStyle;rounded=0;orthogonalLoop=1;jettySize=auto;html=1;entryX=0.5;entryY=0;entryDx=0;entryDy=0;entryPerimeter=0;" parent="1" source="UV1Q603fVWl7I4yThYqV-72" target="_sHCaN5jdZJ6ooyh9Pkk-66" edge="1">
          <mxGeometry relative="1" as="geometry" />
        </mxCell>
        <mxCell id="rtU76uGSi9cEANPFmqYl-1" style="edgeStyle=orthogonalEdgeStyle;rounded=0;orthogonalLoop=1;jettySize=auto;html=1;exitX=1;exitY=0.5;exitDx=0;exitDy=0;exitPerimeter=0;entryX=0.5;entryY=1;entryDx=0;entryDy=0;" edge="1" parent="1" source="0C7dTbFZOeXwOhURuXJz-13" target="UV1Q603fVWl7I4yThYqV-12">
          <mxGeometry relative="1" as="geometry">
            <Array as="points">
              <mxPoint x="587" y="1218" />
            </Array>
          </mxGeometry>
        </mxCell>
        <mxCell id="rtU76uGSi9cEANPFmqYl-2" style="edgeStyle=orthogonalEdgeStyle;rounded=0;orthogonalLoop=1;jettySize=auto;html=1;exitX=0.75;exitY=1;exitDx=0;exitDy=0;entryX=0;entryY=0.5;entryDx=0;entryDy=0;" edge="1" parent="1" source="UV1Q603fVWl7I4yThYqV-12" target="UV1Q603fVWl7I4yThYqV-18">
          <mxGeometry relative="1" as="geometry" />
        </mxCell>
      </root>
    </mxGraphModel>
  </diagram>
</mxfile>
